<svg width="345" height="172" viewBox="0 0 345 172" fill="none" xmlns="http://www.w3.org/2000/svg">
<g clip-path="url(#clip0)">
<path fill-rule="evenodd" clip-rule="evenodd" d="M341 79H2V164H341V79ZM55.3857 92.8818H38.3164V148H55.3857V92.8818ZM95.8784 92.8818H67.5674V148H84.6743V127.547H93.9985C100.866 127.547 105.967 125.98 109.301 122.847C112.66 119.714 114.339 115.365 114.339 109.801C114.339 104.387 112.797 100.213 109.714 97.2808C106.656 94.3481 102.044 92.8818 95.8784 92.8818ZM88.8477 116.38H84.6743V104.086H89.5244C92.7077 104.086 94.8758 104.688 96.0288 105.891C97.1818 107.094 97.7583 108.56 97.7583 110.29C97.7583 112.069 97.0941 113.535 95.7656 114.688C94.4372 115.816 92.1312 116.38 88.8477 116.38ZM136.521 128.75L120.317 129.765C120.793 135.33 122.836 139.917 126.445 143.526C130.055 147.135 136.547 148.94 145.921 148.94C151.26 148.94 155.684 148.175 159.193 146.646C162.702 145.092 165.434 142.824 167.389 139.841C169.344 136.859 170.322 133.6 170.322 130.066C170.322 127.058 169.582 124.339 168.104 121.907C166.65 119.476 164.306 117.446 161.073 115.816C157.864 114.162 152.538 112.533 145.094 110.929C142.086 110.302 140.181 109.625 139.379 108.898C138.552 108.197 138.138 107.407 138.138 106.53C138.138 105.327 138.639 104.312 139.642 103.484C140.645 102.632 142.136 102.206 144.116 102.206C146.522 102.206 148.402 102.77 149.756 103.898C151.134 105.026 152.037 106.831 152.463 109.312L168.517 108.372C167.815 102.657 165.61 98.4964 161.9 95.8896C158.215 93.2578 152.851 91.9419 145.808 91.9419C140.068 91.9419 135.544 92.6688 132.235 94.1226C128.952 95.5513 126.483 97.5314 124.829 100.063C123.199 102.569 122.385 105.239 122.385 108.071C122.385 112.382 123.989 115.929 127.197 118.711C130.381 121.494 135.707 123.724 143.176 125.404C147.738 126.406 150.646 127.472 151.899 128.6C153.152 129.728 153.779 131.006 153.779 132.435C153.779 133.938 153.115 135.267 151.786 136.42C150.483 137.548 148.615 138.112 146.184 138.112C142.926 138.112 140.419 136.996 138.665 134.766C137.587 133.387 136.872 131.382 136.521 128.75ZM231.794 92.8818H214.8V126.532C214.8 129.59 213.96 131.958 212.281 133.638C210.626 135.292 208.333 136.119 205.4 136.119C202.443 136.119 200.124 135.279 198.445 133.6C196.791 131.896 195.963 129.54 195.963 126.532V92.8818H178.969V125.742C178.969 128.449 179.496 131.557 180.548 135.066C181.2 137.247 182.403 139.365 184.158 141.42C185.937 143.476 187.892 145.067 190.023 146.195C192.153 147.298 194.798 148.038 197.956 148.414C201.139 148.79 204.072 148.978 206.754 148.978C211.391 148.978 215.364 148.363 218.672 147.135C221.054 146.258 223.322 144.742 225.478 142.586C227.658 140.405 229.25 137.874 230.252 134.991C231.28 132.084 231.794 129.001 231.794 125.742V92.8818ZM265.293 92.8818H242.885V148H256.834V105.966L267.587 148H280.182L290.973 105.966V148H304.884V92.8818H282.551L273.941 126.419L265.293 92.8818Z" fill="#FFE33A"/>
<path d="M35.0273 4.29199H54.7568V38.9272C54.7568 46.1991 54.105 51.7326 52.8013 55.5278C51.5265 59.3231 48.9336 62.5389 45.0225 65.1753C41.1403 67.8117 36.1572 69.1299 30.0732 69.1299C23.6416 69.1299 18.6585 68.2607 15.124 66.5225C11.5895 64.7842 8.85173 62.2492 6.91064 58.9175C4.99854 55.5568 3.86865 51.4139 3.521 46.4888L22.3379 43.9248C22.3669 46.735 22.6131 48.821 23.0767 50.1826C23.5402 51.5443 24.3224 52.6452 25.4233 53.4854C26.1766 54.0358 27.2485 54.311 28.6392 54.311C30.841 54.311 32.4489 53.4998 33.4629 51.8774C34.5059 50.2261 35.0273 47.4593 35.0273 43.5771V4.29199ZM107.079 57.4834H84.6553L81.5698 68H61.4492L85.394 4.29199H106.862L130.807 68H110.208L107.079 57.4834ZM102.951 43.7075L95.9106 20.8057L88.9141 43.7075H102.951ZM133.718 46.9233L152.448 45.75C152.854 48.792 153.68 51.1097 154.925 52.7031C156.953 55.2816 159.85 56.5708 163.617 56.5708C166.427 56.5708 168.585 55.9189 170.092 54.6152C171.627 53.2826 172.395 51.7471 172.395 50.0088C172.395 48.3574 171.671 46.8799 170.222 45.5762C168.774 44.2725 165.413 43.0412 160.14 41.8823C151.507 39.9412 145.35 37.3628 141.671 34.147C137.963 30.9312 136.108 26.8317 136.108 21.8486C136.108 18.5749 137.05 15.4894 138.933 12.5923C140.845 9.66618 143.699 7.37744 147.494 5.72607C151.318 4.04574 156.548 3.20557 163.182 3.20557C171.323 3.20557 177.523 4.72656 181.782 7.76855C186.069 10.7816 188.619 15.5908 189.43 22.1963L170.874 23.2827C170.382 20.4146 169.339 18.3286 167.745 17.0249C166.181 15.7212 164.008 15.0693 161.227 15.0693C158.938 15.0693 157.214 15.5618 156.055 16.5469C154.896 17.5029 154.317 18.6763 154.317 20.0669C154.317 21.0809 154.795 21.9935 155.751 22.8047C156.678 23.6449 158.88 24.4271 162.356 25.1514C170.961 27.0055 177.117 28.8887 180.826 30.8008C184.563 32.6839 187.272 35.0306 188.952 37.8408C190.661 40.651 191.516 43.7944 191.516 47.271C191.516 51.356 190.386 55.1222 188.126 58.5698C185.867 62.0174 182.709 64.6393 178.653 66.4355C174.597 68.2028 169.483 69.0864 163.312 69.0864C152.477 69.0864 144.974 67.0005 140.802 62.8286C136.63 58.6567 134.269 53.355 133.718 46.9233ZM198.991 36.1895C198.991 25.7887 201.888 17.6912 207.682 11.897C213.476 6.1027 221.545 3.20557 231.888 3.20557C242.491 3.20557 250.661 6.05924 256.397 11.7666C262.134 17.445 265.002 25.4121 265.002 35.668C265.002 43.1136 263.742 49.2266 261.221 54.0068C258.73 58.7581 255.108 62.4665 250.357 65.1318C245.635 67.7682 239.739 69.0864 232.67 69.0864C225.485 69.0864 219.531 67.9421 214.809 65.6533C210.116 63.3646 206.306 59.7432 203.38 54.7891C200.454 49.835 198.991 43.6351 198.991 36.1895ZM218.677 36.2764C218.677 42.708 219.865 47.3289 222.24 50.1392C224.645 52.9494 227.904 54.3545 232.018 54.3545C236.248 54.3545 239.522 52.9784 241.839 50.2261C244.157 47.4738 245.316 42.5342 245.316 35.4072C245.316 29.4102 244.099 25.0355 241.666 22.2832C239.261 19.502 235.987 18.1113 231.844 18.1113C227.875 18.1113 224.688 19.5164 222.284 22.3267C219.879 25.1369 218.677 29.7868 218.677 36.2764ZM275.736 4.29199H294.118L318.106 39.5356V4.29199H336.663V68H318.106L294.249 33.0171V68H275.736V4.29199Z" fill="#FFE33A"/>
</g>
<defs>
<clipPath id="clip0">
<rect width="345" height="172" fill="white"/>
</clipPath>
</defs>
</svg>
